<!-- icon666.com - MILLIONS vector ICONS FREE --><svg id="Layer_1" enable-background="new 0 0 100 100" viewBox="0 0 100 100" xmlns="http://www.w3.org/2000/svg"><path d="m81.2456055 15.1914062c2.6621094 0 5.1650391 1.0371094 7.0473633 2.9199219.390625.390625 1.0234375.390625 1.4140625 0s.390625-1.0234375 0-1.4140625c-2.2602539-2.2607422-5.2651367-3.5058594-8.4614258-3.5058594-3.1967773 0-6.2016602 1.2451172-8.4619141 3.5058594-2.022583 2.0221558-3.2242432 4.6425171-3.4561768 7.4619141h-6.1912842v-1.4501953c0-2.2236328-1.809082-4.0332031-4.0332031-4.0332031h-20.262268c-2.4364014-5.119629-7.6450196-8.6757813-13.6820679-8.6757813-8.3583984 0-15.1586914 6.8007812-15.1586914 15.1591797 0 4.5308838 2.0085449 8.5925293 5.1699829 11.3725586-.0001221.0060425-.003479.0109863-.003479.0170898v37.1181641h-.4448242c-2.6035156 0-4.7216797 2.118164-4.7216797 4.7216797v6.8896484c0 2.6035156 2.1181641 4.7216797 4.7216797 4.7216797h70.5566406c2.6035156 0 4.7216797-2.1181641 4.7216797-4.7216797v-6.8896484c0-2.6035156-2.1181641-4.7216797-4.7216797-4.7216797h-50.5908203v-11.9833984h24.4155273c2.2241211 0 4.0332031-1.8095703 4.0332031-4.0341797v-1.4492188h6.1912842c.2319946 2.8186035 1.4336548 5.4388428 3.4561768 7.4609375 2.2602539 2.2607422 5.2651367 3.5058594 8.4619141 3.5058594 3.1962891 0 6.2011719-1.2451172 8.4614258-3.5058594.390625-.390625.390625-1.0234375 0-1.4140625s-1.0234375-.390625-1.4140625 0c-1.8823242 1.8828125-4.3852539 2.9199219-7.0473633 2.9199219-2.6625977 0-5.1655273-1.0371094-7.0478516-2.9199219-1.8823242-1.8818359-2.9189453-4.3847656-2.9189453-7.046875 0-2.6630859 1.0366211-5.1660156 2.9189453-7.0478516 1.8823242-1.8828125 4.3852539-2.9199219 7.0478516-2.9199219 2.6621094 0 5.1650391 1.0371094 7.0473633 2.9199219.390625.390625 1.0234375.390625 1.4140625 0s.390625-1.0234375 0-1.4140625c-2.2602539-2.2607422-5.2651367-3.5058594-8.4614258-3.5058594-3.1967773 0-6.2016602 1.2451172-8.4619141 3.5058594-2.022583 2.0221558-3.2242432 4.6425171-3.4561768 7.4619141h-6.1912842v-1.4501953c0-2.2236328-1.809082-4.0332031-4.0332031-4.0332031h-24.4155273v-11.7840576c1.7536621-1.421875 3.1730347-3.230896 4.1531372-5.2901611h20.2623901c2.2241211 0 4.0332031-1.8095703 4.0332031-4.0332031v-1.4501953h6.1912842c.2319946 2.8186035 1.4336548 5.4389648 3.4561768 7.4619141 2.3330078 2.3330078 5.3974609 3.4990234 8.4614258 3.4990234 3.0644531 0 6.1289062-1.1660156 8.4619141-3.4990234.390625-.390625.390625-1.0234375 0-1.4140625s-1.0234375-.390625-1.4140625 0c-3.8867188 3.8857422-10.2094727 3.8847656-14.0952148 0-1.8823242-1.8828125-2.9189453-4.3857422-2.9189453-7.0478516 0-2.6630859 1.0366211-5.1660156 2.9189453-7.0478516 1.8823241-1.8828126 4.3852538-2.919922 7.0478515-2.919922zm6.7543945 63.1972657v6.8896484c0 1.5009766-1.2207031 2.7216797-2.7216797 2.7216797h-70.5566406c-1.5009766 0-2.7216797-1.2207031-2.7216797-2.7216797v-6.8896484c0-1.5009766 1.2207031-2.7216797 2.7216797-2.7216797h70.5566406c1.5009766 0 2.7216797 1.2207031 2.7216797 2.7216797zm-28.8969727-27.671875c1.1210938 0 2.0332031.9121094 2.0332031 2.0332031v4.8994141c0 1.1220703-.9121094 2.0341797-2.0332031 2.0341797h-24.4155273v-8.9667969zm-26.4155273 22.9501953h-15.5209961v-35.6516724c2.3237915 1.4498901 5.057251 2.302063 7.9921875 2.302063 2.741272 0 5.3076782-.7422485 7.5288086-2.0200195zm-7.5288086-35.3496094c-7.2558594 0-13.1586914-5.9023437-13.1586914-13.1582031s5.902832-13.1591797 13.1586914-13.1591797 13.1591797 5.9033203 13.1591797 13.1591797-5.9033203 13.1582031-13.1591797 13.1582031zm35.9775391-10.7080078c0 1.1210938-.9121094 2.0332031-2.0332031 2.0332031h-19.4628907c.4398193-1.4175415.6777344-2.9231567.6777344-4.4833984s-.237854-3.0657959-.6776733-4.4833984h19.4628296c1.1210938 0 2.0332031.9121094 2.0332031 2.0332031z"></path><path d="m24.9213867 17.9462891c-3.9770508 0-7.2124023 3.2353516-7.2124023 7.2128906 0 3.9765625 3.2353516 7.2119141 7.2124023 7.2119141s7.2124023-3.2353516 7.2124023-7.2119141c.0000001-3.9775391-3.2353515-7.2128906-7.2124023-7.2128906zm0 12.4248047c-2.8740234 0-5.2124023-2.3378906-5.2124023-5.2119141s2.3383789-5.2128906 5.2124023-5.2128906 5.2124023 2.3388672 5.2124023 5.2128906-2.3383788 5.2119141-5.2124023 5.2119141z"></path><path d="m18.7998047 85.0830078c.5522461 0 1-.4472656 1-1v-4.5c0-.5527344-.4477539-1-1-1s-1 .4472656-1 1v4.5c0 .5527344.4477539 1 1 1z"></path><path d="m26.6000977 85.0830078c.5522461 0 1-.4472656 1-1v-4.5c0-.5527344-.4477539-1-1-1s-1 .4472656-1 1v4.5c0 .5527344.4477539 1 1 1z"></path><path d="m34.3999023 85.0830078c.5522461 0 1-.4472656 1-1v-4.5c0-.5527344-.4477539-1-1-1s-1 .4472656-1 1v4.5c0 .5527344.4477539 1 1 1z"></path><path d="m42.2001953 85.0830078c.5522461 0 1-.4472656 1-1v-4.5c0-.5527344-.4477539-1-1-1s-1 .4472656-1 1v4.5c0 .5527344.4477539 1 1 1z"></path><path d="m50 85.0830078c.5522461 0 1-.4472656 1-1v-4.5c0-.5527344-.4477539-1-1-1s-1 .4472656-1 1v4.5c0 .5527344.4477539 1 1 1z"></path><path d="m57.7998047 85.0830078c.5522461 0 1-.4472656 1-1v-4.5c0-.5527344-.4477539-1-1-1s-1 .4472656-1 1v4.5c0 .5527344.4477539 1 1 1z"></path><path d="m65.6000977 85.0830078c.5522461 0 1-.4472656 1-1v-4.5c0-.5527344-.4477539-1-1-1s-1 .4472656-1 1v4.5c0 .5527344.4477539 1 1 1z"></path><path d="m73.3999023 85.0830078c.5522461 0 1-.4472656 1-1v-4.5c0-.5527344-.4477539-1-1-1s-1 .4472656-1 1v4.5c0 .5527344.4477539 1 1 1z"></path><path d="m81.2001953 85.0830078c.5522461 0 1-.4472656 1-1v-4.5c0-.5527344-.4477539-1-1-1s-1 .4472656-1 1v4.5c0 .5527344.4477539 1 1 1z"></path></svg>