<!-- icon666.com - MILLIONS vector ICONS FREE --><svg id="Capa_1" enable-background="new 0 0 512 512" viewBox="0 0 512 512" xmlns="http://www.w3.org/2000/svg"><g><path d="m14.996 449.027h482.009v-48.273c-160.669 0-321.339 0-482.009 0v48.273zm38.438-145.559c0-4.14 3.345-7.513 7.484-7.513 4.167 0 7.512 3.373 7.512 7.513v13.096c0 4.139-3.345 7.512-7.512 7.512-4.139 0-7.484-3.373-7.484-7.512zm58.252 47.083c0-4.138 3.345-7.512 7.484-7.512 4.138 0 7.512 3.374 7.512 7.512v13.097c0 4.139-3.373 7.512-7.512 7.512s-7.484-3.373-7.484-7.512zm0-47.083c0-4.14 3.345-7.513 7.484-7.513 4.138 0 7.512 3.373 7.512 7.513v13.096c0 4.139-3.373 7.512-7.512 7.512s-7.484-3.373-7.484-7.512zm-29.14 47.083c0-4.138 3.374-7.512 7.512-7.512 4.139 0 7.484 3.374 7.484 7.512v13.097c0 4.139-3.345 7.512-7.484 7.512-4.138 0-7.512-3.373-7.512-7.512zm0-47.083c0-4.14 3.374-7.513 7.512-7.513 4.139 0 7.484 3.373 7.484 7.513v13.096c0 4.139-3.345 7.512-7.484 7.512-4.138 0-7.512-3.373-7.512-7.512zm-29.112 47.083c0-4.138 3.345-7.512 7.484-7.512 4.167 0 7.512 3.374 7.512 7.512v13.097c0 4.139-3.345 7.512-7.512 7.512-4.139 0-7.484-3.373-7.484-7.512zm383.05-231.735v-17.745c0-10.46-4.28-20.013-11.197-26.901-6.917-6.916-16.441-11.225-26.93-11.225h-29.764c-10.489 0-20.013 4.309-26.93 11.225-6.917 6.889-11.197 16.441-11.197 26.901v17.745c11.735 1.672 22.252 7.171 30.274 15.166 7.994 8.021 13.493 18.566 15.165 30.274h15.137c1.672-11.708 7.171-22.253 15.194-30.274 7.996-7.995 18.541-13.494 30.248-15.166zm-113.529-44.873c2.268-3.799 4.989-7.285 8.107-10.403 9.638-9.609 22.904-15.591 37.531-15.591h29.764c14.627 0 27.922 5.981 37.531 15.591 9.638 9.638 15.619 22.933 15.619 37.531v17.745c11.707 1.672 22.252 7.171 30.246 15.166 8.306 8.306 13.891 19.275 15.336 31.464 3.203 1.105 6.095 2.92 8.447 5.273 3.997 3.996 6.463 9.523 6.463 15.59s-2.466 11.565-6.463 15.562c-2.268 2.268-5.017 4.054-8.079 5.159v34.839c0 4.138-3.345 7.512-7.483 7.512-4.139 0-7.512-3.374-7.512-7.512v-33.535h-76.933v101.029h76.933v-33.535c0-4.139 3.373-7.483 7.512-7.483s7.483 3.345 7.483 7.483v34.838c3.061 1.135 5.811 2.893 8.079 5.16 3.997 3.996 6.463 9.496 6.463 15.59 0 6.066-2.466 11.565-6.463 15.562-2.268 2.268-5.017 4.025-8.079 5.159v33.619h7.058c4.139 0 7.484 3.374 7.484 7.513v63.269c0 4.139-3.345 7.512-7.484 7.512h-497.003c-4.139 0-7.512-3.373-7.512-7.512v-63.269c0-4.139 3.373-7.513 7.512-7.513h16.81v-104.4h-16.81c-4.139 0-7.512-3.345-7.512-7.483v-29.141c0-4.139 3.373-7.483 7.512-7.483h57.034c4.139 0 7.483 3.345 7.483 7.483 0 4.139-3.345 7.512-7.483 7.512h-49.55v14.117h133.06v-14.117h-49.55c-4.138 0-7.483-3.373-7.483-7.512s3.345-7.483 7.483-7.483h49.947v-30.218c-3.062-1.105-5.811-2.892-8.05-5.159-3.997-3.997-6.492-9.496-6.492-15.562s2.495-11.594 6.492-15.59c2.352-2.354 5.216-4.168 8.448-5.273 1.445-12.189 7.03-23.158 15.307-31.464 8.022-7.995 18.539-13.494 30.275-15.166v-17.745c0-14.599 5.981-27.894 15.59-37.531 9.638-9.609 22.932-15.591 37.531-15.591h29.792c14.599 0 27.894 5.981 37.531 15.591 3.089 3.117 5.81 6.604 8.078 10.402zm-7.484 44.873v-17.745c0-10.46-4.309-20.013-11.225-26.901-6.888-6.916-16.441-11.225-26.901-11.225h-29.792c-10.46 0-20.013 4.309-26.901 11.225-6.917 6.889-11.225 16.441-11.225 26.901v17.745c11.735 1.672 22.252 7.171 30.274 15.166 8.022 8.021 13.521 18.566 15.165 30.274h15.165c1.645-11.708 7.143-22.253 15.166-30.274 8.022-7.995 18.539-13.494 30.274-15.166zm75.063 234.626h-14.088v32.315h14.088zm-121.041 0h-14.088v32.315h14.088zm-121.041-1.303c-3.062-1.134-5.811-2.892-8.05-5.159-3.997-3.997-6.492-9.496-6.492-15.562 0-6.094 2.495-11.594 6.492-15.59 2.239-2.267 4.989-4.025 8.05-5.16v-29.311h-109.135v104.401h109.135zm106.953-42.775h14.088v-101.029h-14.088v33.535c0 4.138-3.345 7.512-7.512 7.512-4.139 0-7.484-3.374-7.484-7.512v-33.535h-76.933v101.029h76.933v-33.535c0-4.139 3.345-7.483 7.484-7.483 4.167 0 7.512 3.345 7.512 7.483zm121.041 0h14.088v-101.029h-14.088v33.535c0 4.138-3.374 7.512-7.512 7.512s-7.512-3.374-7.512-7.512v-33.535h-76.933v101.029h76.933v-33.535c0-4.139 3.374-7.483 7.512-7.483 4.139 0 7.512 3.345 7.512 7.483zm113.529 29.083c1.928 0 3.685-.794 4.96-2.069 1.276-1.275 2.069-3.033 2.069-4.961 0-1.955-.793-3.713-2.069-4.988-1.275-1.276-3.033-2.07-4.96-2.07-111.346 0-222.665 0-334.01 0-1.928 0-3.685.794-4.961 2.07-1.305 1.275-2.098 3.061-2.098 4.988s.793 3.686 2.098 4.961c1.275 1.275 3.033 2.069 4.961 2.069zm0-145.107c1.928 0 3.685-.794 4.96-2.069 1.276-1.275 2.069-3.033 2.069-4.961s-.793-3.685-2.069-4.961c-1.275-1.304-3.033-2.098-4.96-2.098-111.346 0-222.665 0-334.01 0-1.928 0-3.685.794-4.961 2.098-1.305 1.276-2.098 3.033-2.098 4.961s.793 3.686 2.098 4.961c1.275 1.275 3.033 2.069 4.961 2.069zm-84.446 160.102v32.315h76.933v-32.315zm11.311-208.858c-5.301 5.301-9.071 12.104-10.573 19.673h75.459c-1.53-7.569-5.272-14.372-10.573-19.673-6.973-6.974-16.583-11.282-27.156-11.282-10.575 0-20.184 4.308-27.157 11.282zm-253.364 208.858v32.315h76.933v-32.315zm11.282-208.858c-5.272 5.301-9.042 12.104-10.544 19.673h75.459c-1.531-7.569-5.301-14.372-10.574-19.673-6.973-6.974-16.583-11.282-27.156-11.282-10.574 0-20.212 4.308-27.185 11.282zm109.731 208.858v32.315h76.933v-32.315zm11.31-208.858c-5.272 5.301-9.042 12.104-10.573 19.673h75.459c-1.503-7.569-5.272-14.372-10.545-19.673-7.002-6.974-16.611-11.282-27.185-11.282s-20.183 4.308-27.156 11.282z"></path></g></svg>