<!-- icon666.com - MILLIONS vector ICONS FREE --><svg id="Capa_1" enable-background="new 0 0 512 512" viewBox="0 0 512 512" xmlns="http://www.w3.org/2000/svg"><g><path d="m406 362c4.143 0 7.5-3.357 7.5-7.5v-60c0-4.143-3.357-7.5-7.5-7.5h-210c-4.143 0-7.5 3.357-7.5 7.5v60c0 4.143 3.357 7.5 7.5 7.5zm-202.5-60h195v45h-195z"></path><path d="m466 347h-22.5v-82.5c0-4.143-3.357-7.5-7.5-7.5h-22.5v-129.5c0-28.948-23.552-52.5-52.5-52.5s-52.5 23.552-52.5 52.5v129.5h-15v-129.5c0-28.948-23.552-52.5-52.5-52.5s-52.5 23.552-52.5 52.5v129.5h-22.5c-4.143 0-7.5 3.357-7.5 7.5v90c0 4.143 3.357 7.5 7.5 7.5s7.5-3.357 7.5-7.5v-82.5h255v225h-45v-112.5c0-4.143-3.357-7.5-7.5-7.5h-150c-4.143 0-7.5 3.357-7.5 7.5v112.5h-45v-112.5c0-4.143-3.357-7.5-7.5-7.5h-22.5v-369.5c0-4.143-3.357-7.5-7.5-7.5h-90c-4.143 0-7.5 3.357-7.5 7.5v120c0 4.143 3.357 7.5 7.5 7.5h82.5v242h-75v-219.5c0-4.143-3.357-7.5-7.5-7.5s-7.5 3.357-7.5 7.5v219.5h-7.5c-12.406 0-22.5 10.094-22.5 22.5 0 9.777 6.271 18.114 15 21.21v83.79c0 4.143 3.357 7.5 7.5 7.5h405c4.143 0 7.5-3.357 7.5-7.5v-82.5h15v82.5c0 4.143 3.357 7.5 7.5 7.5h30c4.143 0 7.5-3.357 7.5-7.5v-120c0-20.678-16.822-37.5-37.5-37.5zm-142.5-219.5c0-20.678 16.822-37.5 37.5-37.5s37.5 16.822 37.5 37.5v129.5h-75zm-120 0c0-20.678 16.822-37.5 37.5-37.5s37.5 16.822 37.5 37.5v129.5h-75zm-75-112.5v60h-75v-60zm-75 105v-30h75v30zm315 317h-135v-15h135zm0 15v15h-135v-15zm0-60v15h-135v-15zm-135 90h135v15h-135zm-202.5-90h127.5v15h-127.5c-4.136 0-7.5-3.364-7.5-7.5s3.364-7.5 7.5-7.5zm7.5 30h120v75h-120zm427.5-60c12.406 0 22.5 10.094 22.5 22.5-6.272-4.699-14.064-7.5-22.5-7.5h-22.5v-15zm22.5 135h-15v-82.5c0-4.143-3.357-7.5-7.5-7.5h-22.5v-15h22.5c12.406 0 22.5 10.094 22.5 22.5z"></path></g></svg>