<!-- icon666.com - MILLIONS vector ICONS FREE --><svg viewBox="1 1 511 511.99956" xmlns="http://www.w3.org/2000/svg"><path d="m6.898438 446.933594h64.292968c0 .160156-.023437.316406-.023437.476562 0 35.613282 28.976562 64.589844 64.59375 64.589844 35.613281 0 64.585937-28.976562 64.585937-64.589844 0-.160156-.019531-.316406-.023437-.476562h112.347656c0 .160156-.023437.316406-.023437.476562 0 35.613282 28.976562 64.589844 64.589843 64.589844 35.617188 0 64.589844-28.976562 64.589844-64.589844 0-.160156-.019531-.316406-.023437-.476562h64.292968c3.539063 0 6.402344-2.867188 6.402344-6.398438v-83.734375c0-3.535156-2.863281-6.402343-6.402344-6.402343h-22.625l17.988282-172h4.636718c3.539063 0 6.402344-2.863282 6.402344-6.398438v-56.800781c0-3.535157-2.863281-6.398438-6.402344-6.398438h-51.421875c-2.28125-30.578125-30.320312-54.839843-64.542969-54.839843-9.375 0-18.59375 1.859374-27.070312 5.417968-11.65625-34.839844-47.53125-59.378906-88.425781-59.378906-32.378907 0-61.957031 15.15625-78.71875 39.941406-13.832031-7.089844-29.40625-10.808594-45.417969-10.808594-49.460938 0-89.847656 35.394532-92.175781 79.667969h-51.425781c-3.535157 0-6.398438 2.863281-6.398438 6.398438v56.800781c0 3.535156 2.863281 6.398438 6.398438 6.398438h1.4375l17.988281 172h-19.425781c-3.535157 0-6.398438 2.867187-6.398438 6.402343v83.734375c0 3.535156 2.863281 6.398438 6.398438 6.398438zm128.863281 52.265625c-28.554688 0-51.792969-23.234375-51.792969-51.789063 0-28.554687 23.238281-51.792968 51.792969-51.792968 28.554687 0 51.789062 23.238281 51.789062 51.792968 0 28.554688-23.230469 51.789063-51.789062 51.789063zm241.476562 0c-28.558593 0-51.789062-23.234375-51.789062-51.789063 0-28.554687 23.230469-51.792968 51.789062-51.792968 28.554688 0 51.792969 23.234374 51.792969 51.792968 0 28.554688-23.238281 51.789063-51.792969 51.789063zm-226.738281-457.269531c15.855469 0 31.191406 4.167968 44.347656 12.046874 1.476563.886719 3.246094 1.136719 4.914063.699219 1.664062-.433593 3.082031-1.527343 3.929687-3.019531 13.683594-23.964844 40.871094-38.855469 70.945313-38.855469 37.914062 0 70.75 24.015625 78.074219 57.101563.445312 1.984375 1.792968 3.640625 3.65625 4.464844 1.851562.828124 3.988281.71875 5.761718-.285157 8.40625-4.792969 18.089844-7.324219 28-7.324219 27.132813 0 49.441406 18.523438 51.742188 42.042969h-370.742188c2.347656-37.214843 36.992188-66.871093 79.371094-66.871093zm-137.199219 79.671874h486.398438v44h-486.398438zm7.902344 56.796876h467.394531l-17.988281 172h-431.421875zm-7.902344 184.800781h486.398438v70.933593h-59.253907c-6.140624-29.265624-32.140624-51.3125-63.207031-51.3125-31.0625 0-57.0625 22.046876-63.203125 51.3125h-115.070312c-6.140625-29.265624-32.140625-51.3125-63.203125-51.3125-31.066407 0-57.066407 22.046876-63.207031 51.3125h-59.253907zm0 0"></path></svg>