<!-- icon666.com - MILLIONS vector ICONS FREE --><svg version="1.1" id="Capa_1" xmlns="http://www.w3.org/2000/svg" xmlns:xlink="http://www.w3.org/1999/xlink" x="0px" y="0px" viewBox="0 0 484.897 484.897" style="enable-background:new 0 0 484.897 484.897;" xml:space="preserve"><g><path d="M482.003,118.942L430.965,12.176c-3.308-6.922-11.635-10.551-18.959-8.263l-14.367,4.49 c-7.212,2.254-12.252,9.908-11.474,17.426l5.785,55.844l-132.728,37.324l-8.155-46c-0.359-2.029-2.124-3.508-4.184-3.508h-55.34 c-2.061,0-3.825,1.479-4.185,3.508l-12.353,69.684L39.188,180.874c-8.958,1.676-15.763,9.539-15.763,18.975l0.001,222.65H10.16 c-5.602,0-10.16,4.558-10.16,10.16v27.182c0,5.603,4.558,10.16,10.16,10.16h66.184c5.602,0,10.16-4.558,10.16-10.16V432.66 c0-5.603-4.558-10.16-10.16-10.16h-13.57l0-208.902l104.889-29.498l-51.629,291.24c-0.22,1.238,0.12,2.51,0.928,3.473 c0.808,0.963,2,1.52,3.257,1.52h197.99c1.257,0,2.449-0.557,3.257-1.52c0.808-0.963,1.147-2.234,0.928-3.473l-56.525-318.857 l133.899-37.654c0.143,0.274,0.286,0.545,0.428,0.8l39.858,71.466c2.188,3.923,5.99,6.744,10.15,7.937v278.387 c0,2.348,1.903,4.25,4.25,4.25c2.347,0,4.25-1.902,4.25-4.25V199.062c0.029-0.009,0.058-0.015,0.087-0.023 c6.25-1.953,12.5-8.743,14.229-15.457l11.086-43.04C485.718,134.272,484.795,124.784,482.003,118.942z M245.434,153.4 c0.264-1.5,0.409-3.041,0.409-4.615c0-5.886-1.922-11.328-5.168-15.741l183.951-51.73c2.598-0.73,5.323-0.406,7.676,0.915 c2.354,1.32,4.052,3.479,4.782,6.074l0.184,0.656c0.73,2.598,0.406,5.325-0.915,7.678c-1.32,2.354-3.478,4.052-6.076,4.782 L245.434,153.4z M201.082,148.785c0-9.997,8.133-18.131,18.13-18.131c9.997,0,18.13,8.134,18.13,18.131 c0,9.997-8.133,18.131-18.13,18.131C209.215,166.915,201.082,158.782,201.082,148.785z M195.105,77.99h48.214l7.68,43.32 l-17.605,4.951c-4.109-2.598-8.972-4.107-14.182-4.107c-10.437,0-19.486,6.038-23.85,14.803l-11.272,3.17L195.105,77.99z M78.003,432.66v27.182c0,0.915-0.745,1.66-1.66,1.66H10.16c-0.915,0-1.66-0.745-1.66-1.66V432.66c0-0.915,0.745-1.66,1.66-1.66 h66.184C77.259,430.999,78.003,431.744,78.003,432.66z M31.926,422.499l-0.001-222.65c0-5.26,3.777-9.65,8.761-10.614 c0.023-0.003,0.047-0.008,0.071-0.011c0.644-0.121,1.307-0.191,1.986-0.191h0.714c5.964,0,10.817,4.853,10.817,10.816l0,222.65 H31.926z M62.773,199.849c0-5.95-2.708-11.277-6.952-14.823l136.862-38.487c-0.062,0.741-0.102,1.488-0.102,2.246 c0,6.743,2.524,12.905,6.671,17.603L62.773,204.769V199.849z M300.611,401.167h-34.934c-2.347,0-4.25,1.902-4.25,4.25 c0,2.348,1.903,4.25,4.25,4.25h36.44l3.693,20.834H171.677c-2.347,0-4.25,1.902-4.25,4.25c0,2.348,1.903,4.25,4.25,4.25h135.641 l5.82,32.83h-187.85l41.866-236.164h51.191c2.347,0,4.25-1.902,4.25-4.25c0-2.348-1.903-4.25-4.25-4.25H168.66l8.088-45.623 l31.012-8.722c3.471,1.661,7.354,2.593,11.452,2.593c9.317,0,17.527-4.813,22.287-12.08l16.145-4.541L300.611,401.167z M475.872,138.421l-11.086,43.04c-0.997,3.869-5.063,8.38-8.533,9.464c-2.979,0.935-7.08-0.924-8.778-3.971l-39.312-70.487 l24.415-6.866c4.784-1.345,8.757-4.472,11.189-8.806c2.431-4.333,3.029-9.354,1.685-14.136l-0.184-0.656 c-1.345-4.783-4.473-8.757-8.806-11.188c-4.334-2.432-9.356-3.03-14.137-1.684l-22.072,6.207l-5.634-54.384 c-0.358-3.458,2.237-7.401,5.554-8.438l14.367-4.49c3.213-1.005,7.304,0.778,8.755,3.815l51.038,106.766 C476.276,126.671,476.995,134.061,475.872,138.421z"></path><path d="M235.677,401.167h-59.333c-2.347,0-4.25,1.902-4.25,4.25c0,2.348,1.903,4.25,4.25,4.25h59.333 c2.347,0,4.25-1.902,4.25-4.25C239.927,403.07,238.024,401.167,235.677,401.167z"></path></g></svg>